# xmcd
#
# Track frame offsets:
#	150
#	14930
#	31319
#	46559
#	66292
#	81283
#	104597
#	120578
#	140957
#	153928
#	169529
#
# Disc length: 2421 seconds
#
# Revision: 0
# Processed by: cddbd v1.5.1PL2 Copyright (c) Steve Scherf et al.
# Submitted via: EasyCDDAExtractor 9.0.0.1
#
DISCID=9309730b
DTITLE=The Blues Police
DYEAR=1999
DGENRE=Blues
TTITLE0=My Babe
TTITLE1=You Talk Too Mean
TTITLE2=The Wolf
TTITLE3=Goin' Away Baby
TTITLE4=Harold's Request
TTITLE5=St. James Infirmary
TTITLE6=Smiling On A Windy Day
TTITLE7=Hey Hey Baby
TTITLE8=Speckle Head Rag
TTITLE9=It Ain't Right
TTITLE10=The Sprawl
EXTD=
EXTT0=
EXTT1=
EXTT2=
EXTT3=
EXTT4=
EXTT5=
EXTT6=
EXTT7=
EXTT8=
EXTT9=
EXTT10=
PLAYORDER=
